<svg width="748" height="982" viewBox="0 0 748 982" fill="none" xmlns="http://www.w3.org/2000/svg">
<g clip-path="url(#clip0_2_387)">
<rect width="748" height="982" fill="#11453B"/>
<mask id="mask0_2_387" style="mask-type:alpha" maskUnits="userSpaceOnUse" x="0" y="0" width="749" height="982">
<rect x="748" y="982" width="748" height="982" transform="rotate(-180 748 982)" fill="url(#paint0_linear_2_387)"/>
</mask>
<g mask="url(#mask0_2_387)">
<path opacity="0.2" fill-rule="evenodd" clip-rule="evenodd" d="M601.552 515.852C693.312 506.432 786.124 532.041 862.659 577.55C941.011 624.14 1025.75 687.943 1030.68 771.019C1035.54 853.028 929.431 902.221 886.243 975.027C853.384 1030.42 856.747 1098.54 808.968 1144.77C753.869 1198.09 683.368 1254.01 601.552 1250.5C520.171 1247.01 477.009 1166.15 408.33 1127.59C332.883 1085.23 206.797 1089.26 180.4 1014.03C153.916 938.544 258.275 878.077 295.569 806.213C326.936 745.771 329.918 675.7 381.268 626.972C440.254 570.998 515.368 524.7 601.552 515.852Z" fill="#01261F"/>
<path opacity="0.2" fill-rule="evenodd" clip-rule="evenodd" d="M-214.719 -8.16962C-131.636 -0.326951 -107.499 99.4311 -38.7299 141.182C32.9805 184.719 156.49 167.932 191.16 238.246C225.266 307.415 151.262 380.531 112.427 447.743C79.7362 504.323 47.5214 564.466 -15.3344 595.633C-74.8805 625.158 -146.413 607.652 -214.719 609.955C-286.699 612.383 -357.72 630.843 -425.53 609.467C-510.117 582.803 -608.612 549.84 -640.176 475.841C-671.837 401.614 -620.44 320.498 -578.775 250.198C-542.667 189.276 -481.261 148.289 -420.472 105.147C-355.915 59.3322 -297.194 -15.9549 -214.719 -8.16962Z" fill="#01261F"/>
<path opacity="0.2" fill-rule="evenodd" clip-rule="evenodd" d="M189.861 -282.841C281.62 -292.262 374.433 -266.652 450.968 -221.143C529.32 -174.553 614.058 -110.75 618.988 -27.6745C623.853 54.3346 517.74 103.528 474.551 176.334C441.693 231.725 445.055 299.848 397.276 346.08C342.177 399.394 271.676 455.312 189.861 451.803C108.48 448.313 65.3172 367.458 -3.36114 328.896C-78.8088 286.534 -204.895 290.565 -231.291 215.334C-257.776 139.851 -153.417 79.3833 -116.122 7.51984C-84.755 -52.9222 -81.7733 -122.993 -30.4237 -171.721C28.5623 -227.696 103.676 -273.993 189.861 -282.841Z" fill="#01261F"/>
</g>
</g>
<defs>
<linearGradient id="paint0_linear_2_387" x1="829.871" y1="1964" x2="1379.97" y2="958.356" gradientUnits="userSpaceOnUse">
<stop stop-color="#4700C0"/>
<stop offset="1" stop-color="#A044FF"/>
</linearGradient>
<clipPath id="clip0_2_387">
<rect width="748" height="982" fill="white"/>
</clipPath>
</defs>
</svg>
